<?xml version="1.0" encoding="UTF-8" standalone="no"?>
<svg width="474px" height="133px" viewBox="0 0 474 133" version="1.1" xmlns="http://www.w3.org/2000/svg" xmlns:xlink="http://www.w3.org/1999/xlink" xmlns:sketch="http://www.bohemiancoding.com/sketch/ns">
    <!-- Generator: Sketch 3.4.4 (17249) - http://www.bohemiancoding.com/sketch -->
    <title>header-image</title>
    <desc>Created with Sketch.</desc>
    <defs></defs>
    <g id="Page-1" stroke="none" stroke-width="1" fill="none" fill-rule="evenodd" sketch:type="MSPage">
        <g id="Desktop-HD-Copy-2" sketch:type="MSArtboardGroup" transform="translate(-488.000000, -153.000000)" fill="#FFFFFF">
            <g id="header-image" sketch:type="MSLayerGroup" transform="translate(488.000000, 153.000000)">
                <path d="M304,67.86 C303.02,68 303.16,67.58 302.6,67.02 C299.66,67.44 296.16,67.16 292.94,66.74 C289.44,66.6 286.22,66.74 282.72,66.74 C281.6,63.1 282.44,51.2 282.44,46.44 C281.88,46.3 281.74,45.6 281.18,45.46 C280.9,45.32 280.2,45.32 279.08,45.32 C275.3,44.9 272.22,45.18 269.28,45.04 C269.14,45.46 269.14,45.88 269.42,46.16 C268.72,47.7 269,49.52 268.86,51.2 C268.44,56.1 268.16,61.7 268.58,67.16 C261.86,66.74 255.56,67.16 248.98,67.58 C248.84,68 248.56,68.28 248,68.7 C248.14,71.08 248,73.6 248,75.7 C248.14,76.82 247.44,78.08 247.86,79.06 C248,79.48 248.28,79.06 248.42,79.48 C248.56,79.9 248.28,80.18 248.7,80.18 C254.72,80.88 262,80.6 268.72,81.16 C268.58,87.88 268.86,93.76 269,101.6 C269.98,102.02 271.66,101.88 272.78,101.88 C275.16,102.02 278.38,102.02 280.76,101.6 C281.88,101.46 283,101.74 282.58,100.2 C282.58,94.04 282.58,87.74 282.72,81.16 C283.7,80.18 284.82,80.04 286.22,80.46 C292.8,79.76 297.28,80.32 303.3,79.62 C303.58,79.34 303.86,79.2 304.14,79.06 C303.72,75.7 304.42,71.08 304,67.86 L304,67.86 Z M281.04,100.34 C278.1,100.48 273.48,100.9 270.26,100.48 C270.12,94.74 269.98,85.92 270.12,80.18 C269.42,80.04 269.14,80.18 268.72,79.62 C262,79.2 255.7,79.34 249.12,78.78 C249.54,75.98 249.54,72.2 249.54,68.84 C255.56,68.7 262.42,68.14 269,68.56 C269.14,68.14 269.7,68.28 269.84,68.14 C269.98,64.92 269.84,59.88 269.98,55.4 C270.12,52.18 270.12,49.1 270.54,46.44 C273.34,46.86 278.1,46.44 281.04,47 C281.46,49.1 281.04,51.34 281.18,52.88 C281.32,56.8 280.76,60.72 281.18,64.78 C281.18,66.6 280.62,68.98 282.58,68.14 C283.56,68.28 284.4,68.28 285.38,68.28 C286.92,68.28 288.46,68.28 290,68.14 C292.66,68 294.9,68.56 297.56,68.56 C299.24,68.56 300.92,68.56 302.6,68.42 C303.02,71.64 302.6,75.14 302.46,78.36 C297.98,78.78 292.94,78.64 288.32,78.78 C287.34,78.78 286.64,79.06 285.94,79.06 C284.82,79.06 284.26,78.78 283.28,79.2 C282.72,79.34 282.58,79.9 281.88,80.04 C281.88,80.46 281.32,80.6 281.18,81.16 C281.32,84.1 281.18,87.6 281.18,89.98 C281.04,91.8 281.04,93.34 281.18,94.46 C281.04,95.16 281.04,95.86 281.04,96.42 C281.04,97.4 281.18,98.24 281.18,99.78 L281.04,100.34 Z" id="+" sketch:type="MSShapeGroup"></path>
                <path d="M0.88,120 L0.88,45.8 L19.08,45.8 L19.08,120 L0.88,120 Z M0.88,35.02 L0.88,17.8 L19.08,17.8 L19.08,35.02 L0.88,35.02 Z M77.04,104.74 C83.7600336,104.74 89.2666452,102.010027 93.56,96.55 C97.8533548,91.0899727 100,82.293394 100,70.16 C100,59.5199468 97.7833555,51.400028 93.35,45.8 C88.9166445,40.199972 83.4800322,37.4 77.04,37.4 C70.506634,37.4 65.0466886,40.199972 60.66,45.8 C56.2733114,51.400028 54.08,59.5199468 54.08,70.16 C54.08,82.1067264 56.2266452,90.8566389 60.52,96.41 C64.8133548,101.963361 70.3199664,104.74 77.04,104.74 L77.04,104.74 Z M77.04,122.1 C71.439972,122.1 66.1666914,121.12001 61.22,119.16 C56.2733086,117.19999 51.7700203,114.236686 47.71,110.27 C43.6499797,106.303313 40.4300119,100.890034 38.05,94.03 C35.6699881,87.1699657 34.48,79.2133786 34.48,70.16 C34.48,62.0399594 35.6699881,54.713366 38.05,48.18 C40.4300119,41.646634 43.6499797,36.3500203 47.71,32.29 C51.7700203,28.2299797 56.2966417,25.1500105 61.29,23.05 C66.2833583,20.9499895 71.5333058,19.9 77.04,19.9 C82.5466942,19.9 87.7966417,20.9499895 92.79,23.05 C97.7833583,25.1500105 102.30998,28.2299797 106.37,32.29 C110.43002,36.3500203 113.649988,41.646634 116.03,48.18 C118.410012,54.713366 119.6,62.0399594 119.6,70.16 C119.6,79.2133786 118.410012,87.1699657 116.03,94.03 C113.649988,100.890034 110.43002,106.303313 106.37,110.27 C102.30998,114.236686 97.8066914,117.19999 92.86,119.16 C87.9133086,121.12001 82.640028,122.1 77.04,122.1 L77.04,122.1 Z M130.1,87.24 L149.98,82.9 C151.193339,90.5533716 153.176653,96.0833163 155.93,99.49 C158.683347,102.896684 163.186635,104.6 169.44,104.6 C174.760027,104.6 179.006651,103.643343 182.18,101.73 C185.353349,99.8166571 186.94,96.993352 186.94,93.26 C186.94,89.3399804 185.423349,86.3300105 182.39,84.23 C179.356652,82.1299895 172.426721,79.4000168 161.6,76.04 C151.426616,72.8666508 144.216688,69.0166893 139.97,64.49 C135.723312,59.9633107 133.6,54.3866998 133.6,47.76 C133.6,40.1066284 136.563304,33.5500273 142.49,28.09 C148.416696,22.6299727 156.466616,19.9 166.64,19.9 C175.880046,19.9 183.836633,22.1399776 190.51,26.62 C197.183367,31.1000224 201.359992,37.773289 203.04,46.64 L184.7,51.26 C181.806652,42.0199538 175.786712,37.4 166.64,37.4 C161.786642,37.4 158.170012,38.333324 155.79,40.2 C153.409988,42.066676 152.22,44.5399846 152.22,47.62 C152.22,50.5133478 153.57332,52.7299923 156.28,54.27 C158.98668,55.8100077 165.939944,58.4933142 177.14,62.32 C187.966721,66.053352 195.386647,70.0899783 199.4,74.43 C203.413353,78.7700217 205.42,84.6266298 205.42,92 C205.42,100.680043 202.153366,107.866638 195.62,113.56 C189.086634,119.253362 180.360055,122.1 169.44,122.1 C158.333278,122.1 149.350034,119.183362 142.49,113.35 C135.629966,107.516637 131.500007,98.8133912 130.1,87.24 L130.1,87.24 Z" id="iOS" sketch:type="MSShapeGroup"></path>
                <g id="Logo" transform="translate(343.000000, 0.000000)" sketch:type="MSShapeGroup">
                    <path d="M65.5,0 C29.3518797,0 0,29.7525926 0,65.9088889 C0,100.488889 26.4954887,129.059259 60.2796992,131.817778 C61.8556391,131.817778 63.9240602,132.211852 65.5,132.211852 L131,132.211852 L131,66.302963 L131,65.9088889 C131,29.7525926 101.64812,0 65.5,0 Z M109.094474,59.1111111 C108.306505,61.9681481 106.730565,63.9385185 104.268159,65.1207407 C102.692219,65.9088889 101.017783,66.302963 99.0478579,66.302963 C97.865903,66.302963 96.6839481,65.9088889 95.403497,65.5148148 L93.0395872,65.5148148 C90.1831963,65.5148148 86.6373316,66.302963 81.8110158,68.3718519 C81.4170309,68.7659259 80.235076,69.5540741 79.841091,70.3422222 L76.1967301,83.2481481 C76.1967301,83.2481481 75.8027451,84.8244444 76.5907151,86.1051852 C80.6290609,91.7207407 83.7809406,94.9718519 86.6373316,95.76 C89.4937226,96.1540741 91.8576324,97.7303704 93.4335722,100.193333 C94.6155271,102.163704 95.0095121,105.020741 94.2215421,107.385185 C93.4335722,109.74963 92.2516173,111.818519 89.7892113,113.000741 C88.6072564,113.788889 86.9328203,114.182963 85.3568805,114.182963 C82.1065045,114.182963 78.9546248,112.606667 77.2801888,109.355556 C75.7042489,106.991111 75.7042489,103.74 76.8862038,101.277037 C77.6741737,98.9125926 76.8862038,94.0851852 74.0298128,87.582963 C74.0298128,87.582963 73.6358278,86.4007407 72.453873,86.0066667 L58.7628955,82.3614815 L58.3689106,82.3614815 C57.5809406,82.3614815 56.7929707,82.7555556 56.7929707,82.7555556 C51.57267,86.4007407 48.322294,89.1592593 47.9283091,91.6222222 C47.5343241,93.9866667 46.3523692,96.0555556 44.2839481,97.2377778 C43.1019933,98.0259259 41.9200384,98.42 40.2456023,98.42 C37.3892113,98.42 35.0253015,96.8437037 33.4493617,94.3807407 C31.4794369,90.7355556 32.6613918,85.9081481 36.3057527,83.9377778 C37.4877075,83.1496296 38.6696624,82.7555556 40.3440985,82.7555556 C41.1320684,82.7555556 42.3140233,82.7555556 43.2004895,83.1496296 C43.5944745,83.1496296 44.3824444,83.5437037 44.7764294,83.5437037 C47.1403391,83.5437037 50.7847,82.3614815 54.8230459,80.2925926 C56.0050008,79.5044444 56.3989857,78.3222222 56.7929707,77.9281481 L60.4373316,64.6281481 C60.8313166,63.84 60.0433466,62.6577778 59.6493617,61.7711111 C54.035076,54.0866667 49.6027451,49.7518519 45.9583842,48.8651852 C42.3140233,48.4711111 39.5561286,46.5007407 37.4877075,43.2496296 C35.9117677,40.3925926 35.5177827,37.24 36.3057527,34.382963 C37.0937226,31.5259259 39.1621436,28.7674074 41.5260534,27.1911111 C43.1019933,26.0088889 45.1704143,25.6148148 47.1403391,25.6148148 C51.178685,25.6148148 55.2170309,27.9792593 57.1869557,31.6244444 C58.7628955,34.8755556 59.1568805,38.4222222 57.9749256,41.6733333 C56.7929707,44.9244444 57.9749256,51.3281481 62.0132715,59.8007407 C62.0132715,59.8007407 62.8012414,61.7711111 64.8696624,62.1651852 L77.2801888,65.4162963 L78.0681587,65.4162963 C79.2501136,65.4162963 80.4320684,64.6281481 80.4320684,64.6281481 C85.6523692,60.5888889 88.9027451,56.9437037 89.2967301,54.1851852 C89.6907151,50.9340741 91.6606399,48.1755556 94.1230459,46.9933333 C95.6989857,46.2051852 97.3734218,45.8111111 99.3433466,45.8111111 C102.987708,45.8111111 106.139587,47.7814815 108.208008,51.0325926 C109.488459,53.4955556 109.882444,56.2540741 109.094474,59.1111111 Z" id="Path"></path>
                </g>
            </g>
        </g>
    </g>
</svg>