<?xml version="1.0" encoding="UTF-8" standalone="no"?>
<svg width="474px" height="133px" viewBox="0 0 474 133" version="1.1" xmlns="http://www.w3.org/2000/svg" xmlns:xlink="http://www.w3.org/1999/xlink" xmlns:sketch="http://www.bohemiancoding.com/sketch/ns">
    <!-- Generator: Sketch 3.4.4 (17249) - http://www.bohemiancoding.com/sketch -->
    <title>header-image</title>
    <desc>Created with Sketch.</desc>
    <defs></defs>
    <g id="Page-1" stroke="none" stroke-width="1" fill="none" fill-rule="evenodd" sketch:type="MSPage">
        <g id="Desktop-HD-Copy-2" sketch:type="MSArtboardGroup" transform="translate(-488.000000, -153.000000)" fill="#FFFFFF">
            <g id="header-image" sketch:type="MSLayerGroup" transform="translate(479.000000, 137.000000)">
                <text id="+" sketch:type="MSTextLayer" font-family="Festivo Letters No.8" font-size="140" font-weight="normal" sketch:alignment="middle">
                    <tspan x="248.32" y="133">+</tspan>
                </text>
                <text id="iOS" sketch:type="MSTextLayer" font-family="Maison Neue" font-size="140" font-weight="bold" sketch:alignment="middle">
                    <tspan x="0.08" y="136">iOS</tspan>
                </text>
                <g id="Logo" transform="translate(352.000000, 16.000000)" sketch:type="MSShapeGroup">
                    <path d="M65.5,0 C29.3518797,0 0,29.7525926 0,65.9088889 C0,100.488889 26.4954887,129.059259 60.2796992,131.817778 C61.8556391,131.817778 63.9240602,132.211852 65.5,132.211852 L131,132.211852 L131,66.302963 L131,65.9088889 C131,29.7525926 101.64812,0 65.5,0 Z M109.094474,59.1111111 C108.306505,61.9681481 106.730565,63.9385185 104.268159,65.1207407 C102.692219,65.9088889 101.017783,66.302963 99.0478579,66.302963 C97.865903,66.302963 96.6839481,65.9088889 95.403497,65.5148148 L93.0395872,65.5148148 C90.1831963,65.5148148 86.6373316,66.302963 81.8110158,68.3718519 C81.4170309,68.7659259 80.235076,69.5540741 79.841091,70.3422222 L76.1967301,83.2481481 C76.1967301,83.2481481 75.8027451,84.8244444 76.5907151,86.1051852 C80.6290609,91.7207407 83.7809406,94.9718519 86.6373316,95.76 C89.4937226,96.1540741 91.8576324,97.7303704 93.4335722,100.193333 C94.6155271,102.163704 95.0095121,105.020741 94.2215421,107.385185 C93.4335722,109.74963 92.2516173,111.818519 89.7892113,113.000741 C88.6072564,113.788889 86.9328203,114.182963 85.3568805,114.182963 C82.1065045,114.182963 78.9546248,112.606667 77.2801888,109.355556 C75.7042489,106.991111 75.7042489,103.74 76.8862038,101.277037 C77.6741737,98.9125926 76.8862038,94.0851852 74.0298128,87.582963 C74.0298128,87.582963 73.6358278,86.4007407 72.453873,86.0066667 L58.7628955,82.3614815 L58.3689106,82.3614815 C57.5809406,82.3614815 56.7929707,82.7555556 56.7929707,82.7555556 C51.57267,86.4007407 48.322294,89.1592593 47.9283091,91.6222222 C47.5343241,93.9866667 46.3523692,96.0555556 44.2839481,97.2377778 C43.1019933,98.0259259 41.9200384,98.42 40.2456023,98.42 C37.3892113,98.42 35.0253015,96.8437037 33.4493617,94.3807407 C31.4794369,90.7355556 32.6613918,85.9081481 36.3057527,83.9377778 C37.4877075,83.1496296 38.6696624,82.7555556 40.3440985,82.7555556 C41.1320684,82.7555556 42.3140233,82.7555556 43.2004895,83.1496296 C43.5944745,83.1496296 44.3824444,83.5437037 44.7764294,83.5437037 C47.1403391,83.5437037 50.7847,82.3614815 54.8230459,80.2925926 C56.0050008,79.5044444 56.3989857,78.3222222 56.7929707,77.9281481 L60.4373316,64.6281481 C60.8313166,63.84 60.0433466,62.6577778 59.6493617,61.7711111 C54.035076,54.0866667 49.6027451,49.7518519 45.9583842,48.8651852 C42.3140233,48.4711111 39.5561286,46.5007407 37.4877075,43.2496296 C35.9117677,40.3925926 35.5177827,37.24 36.3057527,34.382963 C37.0937226,31.5259259 39.1621436,28.7674074 41.5260534,27.1911111 C43.1019933,26.0088889 45.1704143,25.6148148 47.1403391,25.6148148 C51.178685,25.6148148 55.2170309,27.9792593 57.1869557,31.6244444 C58.7628955,34.8755556 59.1568805,38.4222222 57.9749256,41.6733333 C56.7929707,44.9244444 57.9749256,51.3281481 62.0132715,59.8007407 C62.0132715,59.8007407 62.8012414,61.7711111 64.8696624,62.1651852 L77.2801888,65.4162963 L78.0681587,65.4162963 C79.2501136,65.4162963 80.4320684,64.6281481 80.4320684,64.6281481 C85.6523692,60.5888889 88.9027451,56.9437037 89.2967301,54.1851852 C89.6907151,50.9340741 91.6606399,48.1755556 94.1230459,46.9933333 C95.6989857,46.2051852 97.3734218,45.8111111 99.3433466,45.8111111 C102.987708,45.8111111 106.139587,47.7814815 108.208008,51.0325926 C109.488459,53.4955556 109.882444,56.2540741 109.094474,59.1111111 Z" id="Path"></path>
                </g>
            </g>
        </g>
    </g>
</svg>