<?xml version="1.0" encoding="UTF-8" standalone="no"?>
<svg width="1440px" height="25px" viewBox="0 0 1440 25" version="1.1" xmlns="http://www.w3.org/2000/svg" xmlns:xlink="http://www.w3.org/1999/xlink" xmlns:sketch="http://www.bohemiancoding.com/sketch/ns">
    <!-- Generator: Sketch 3.4.4 (17249) - http://www.bohemiancoding.com/sketch -->
    <title>triangles</title>
    <desc>Created with Sketch.</desc>
    <defs></defs>
    <g id="Page-1" stroke="none" stroke-width="1" fill="none" fill-rule="evenodd" sketch:type="MSPage">
        <g id="Desktop-HD-Copy-2" sketch:type="MSArtboardGroup" transform="translate(0.000000, -1048.000000)" fill="#161C22">
            <g id="Background" sketch:type="MSLayerGroup" transform="translate(-9.000000, 0.000000)">
                <g id="triangles" transform="translate(0.000000, 1048.000000)" sketch:type="MSShapeGroup">
                    <polygon id="Triangle-26" transform="translate(1431.000000, 12.500000) rotate(-180.000000) translate(-1431.000000, -12.500000) " points="1431 0 1458 25 1404 25 "></polygon>
                    <polygon id="Triangle-25" transform="translate(1377.000000, 12.500000) rotate(-180.000000) translate(-1377.000000, -12.500000) " points="1377 0 1404 25 1350 25 "></polygon>
                    <polygon id="Triangle-24" transform="translate(1323.000000, 12.500000) rotate(-180.000000) translate(-1323.000000, -12.500000) " points="1323 0 1350 25 1296 25 "></polygon>
                    <polygon id="Triangle-23" transform="translate(1269.000000, 12.500000) rotate(-180.000000) translate(-1269.000000, -12.500000) " points="1269 0 1296 25 1242 25 "></polygon>
                    <polygon id="Triangle-22" transform="translate(1215.000000, 12.500000) rotate(-180.000000) translate(-1215.000000, -12.500000) " points="1215 0 1242 25 1188 25 "></polygon>
                    <polygon id="Triangle-21" transform="translate(1161.000000, 12.500000) rotate(-180.000000) translate(-1161.000000, -12.500000) " points="1161 0 1188 25 1134 25 "></polygon>
                    <polygon id="Triangle-20" transform="translate(1107.000000, 12.500000) rotate(-180.000000) translate(-1107.000000, -12.500000) " points="1107 0 1134 25 1080 25 "></polygon>
                    <polygon id="Triangle-19" transform="translate(1053.000000, 12.500000) rotate(-180.000000) translate(-1053.000000, -12.500000) " points="1053 0 1080 25 1026 25 "></polygon>
                    <polygon id="Triangle-18" transform="translate(999.000000, 12.500000) rotate(-180.000000) translate(-999.000000, -12.500000) " points="999 0 1026 25 972 25 "></polygon>
                    <polygon id="Triangle-17" transform="translate(945.000000, 12.500000) rotate(-180.000000) translate(-945.000000, -12.500000) " points="945 0 972 25 918 25 "></polygon>
                    <polygon id="Triangle-16" transform="translate(891.000000, 12.500000) rotate(-180.000000) translate(-891.000000, -12.500000) " points="891 0 918 25 864 25 "></polygon>
                    <polygon id="Triangle-15" transform="translate(837.000000, 12.500000) rotate(-180.000000) translate(-837.000000, -12.500000) " points="837 0 864 25 810 25 "></polygon>
                    <polygon id="Triangle-14" transform="translate(783.000000, 12.500000) rotate(-180.000000) translate(-783.000000, -12.500000) " points="783 0 810 25 756 25 "></polygon>
                    <polygon id="Triangle-13" transform="translate(729.000000, 12.500000) rotate(-180.000000) translate(-729.000000, -12.500000) " points="729 0 756 25 702 25 "></polygon>
                    <polygon id="Triangle-12" transform="translate(675.000000, 12.500000) rotate(-180.000000) translate(-675.000000, -12.500000) " points="675 0 702 25 648 25 "></polygon>
                    <polygon id="Triangle-11" transform="translate(621.000000, 12.500000) rotate(-180.000000) translate(-621.000000, -12.500000) " points="621 0 648 25 594 25 "></polygon>
                    <polygon id="Triangle-10" transform="translate(567.000000, 12.500000) rotate(-180.000000) translate(-567.000000, -12.500000) " points="567 0 594 25 540 25 "></polygon>
                    <polygon id="Triangle-9" transform="translate(513.000000, 12.500000) rotate(-180.000000) translate(-513.000000, -12.500000) " points="513 0 540 25 486 25 "></polygon>
                    <polygon id="Triangle-8" transform="translate(459.000000, 12.500000) rotate(-180.000000) translate(-459.000000, -12.500000) " points="459 0 486 25 432 25 "></polygon>
                    <polygon id="Triangle-7" transform="translate(405.000000, 12.500000) rotate(-180.000000) translate(-405.000000, -12.500000) " points="405 0 432 25 378 25 "></polygon>
                    <polygon id="Triangle-6" transform="translate(351.000000, 12.500000) rotate(-180.000000) translate(-351.000000, -12.500000) " points="351 0 378 25 324 25 "></polygon>
                    <polygon id="Triangle-5" transform="translate(297.000000, 12.500000) rotate(-180.000000) translate(-297.000000, -12.500000) " points="297 0 324 25 270 25 "></polygon>
                    <polygon id="Triangle-4" transform="translate(243.000000, 12.500000) rotate(-180.000000) translate(-243.000000, -12.500000) " points="243 0 270 25 216 25 "></polygon>
                    <polygon id="Triangle-3" transform="translate(189.000000, 12.500000) rotate(-180.000000) translate(-189.000000, -12.500000) " points="189 0 216 25 162 25 "></polygon>
                    <polygon id="Triangle-2" transform="translate(135.000000, 12.500000) rotate(-180.000000) translate(-135.000000, -12.500000) " points="135 0 162 25 108 25 "></polygon>
                    <polygon id="Triangle-1-Copy" transform="translate(81.000000, 12.500000) rotate(-180.000000) translate(-81.000000, -12.500000) " points="81 0 108 25 54 25 "></polygon>
                    <polygon id="Triangle-1" transform="translate(27.000000, 12.500000) rotate(-180.000000) translate(-27.000000, -12.500000) " points="27 0 54 25 0 25 "></polygon>
                </g>
            </g>
        </g>
    </g>
</svg>